<svg xmlns="http://www.w3.org/2000/svg" viewBox="0 0 1024 1024">
  <circle cx="512" cy="512" r="512" style="fill:#bd9aff"/>
  <path d="M722.82 745.41H301.17a45.176 45.176 0 0 1-45.176-45.176v-376.47a45.176 45.176 0 0 1 45.176-45.176h421.65a45.176 45.176 0 0 1 45.176 45.176v376.47a45.176 45.176 0 0 1-45.176 45.176m-406.59-97.882a22.588 22.588 0 0 0 22.588 22.588h82.824v-30.118h-67.765a7.53 7.53 0 0 1-7.53-7.53v-45.175a7.53 7.53 0 0 1 7.53-7.53h67.765v-30.118h-82.824a22.588 22.588 0 0 0-22.588 22.588zm120.47-271.06a22.588 22.588 0 0 0-22.588-22.588h-75.294a22.588 22.588 0 0 0-22.588 22.588v75.294a22.588 22.588 0 0 0 22.588 22.588h52.706v-30.118h-37.647a7.53 7.53 0 0 1-7.53-7.53v-45.175a7.53 7.53 0 0 1 7.53-7.53h45.176a7.53 7.53 0 0 1 7.53 7.53v90.353a7.53 7.53 0 0 1-7.53 7.529h-82.824v30.118h97.882a22.588 22.588 0 0 0 22.588-22.588zm0 195.76v75.294a22.588 22.588 0 0 0 22.588 22.588h75.294a22.588 22.588 0 0 0 22.588-22.588v-75.294a22.588 22.588 0 0 0-22.588-22.588h-75.294a22.588 22.588 0 0 0-22.588 22.588m135.53-195.76a22.588 22.588 0 0 0-22.588-22.588h-75.294a22.588 22.588 0 0 0-22.588 22.588v75.294a22.588 22.588 0 0 0 22.588 22.588h75.294a22.588 22.588 0 0 0 22.588-22.588zm135.53 0a22.588 22.588 0 0 0-22.588-22.588h-75.294a22.588 22.588 0 0 0-22.588 22.588v75.294a22.588 22.588 0 0 0 22.588 22.588h52.706v-30.118h-37.647a7.53 7.53 0 0 1-7.53-7.53v-45.175a7.53 7.53 0 0 1 7.53-7.53h45.176a7.53 7.53 0 0 1 7.53 7.53v90.353a7.53 7.53 0 0 1-7.53 7.529h-82.824v30.118h97.882a22.588 22.588 0 0 0 22.588-22.588zm0 173.18H594.82a22.588 22.588 0 0 0-22.588 22.588v97.882h30.118v-82.824a7.53 7.53 0 0 1 7.53-7.53h15.058v90.354h30.118v-90.353h22.588v90.353h30.118zm-173.18-105.41h-45.176a7.53 7.53 0 0 1-7.53-7.53v-45.175a7.53 7.53 0 0 1 7.53-7.53h45.176a7.53 7.53 0 0 1 7.53 7.53v45.176a7.53 7.53 0 0 1-7.53 7.529m-60.235 135.53h45.176a7.53 7.53 0 0 1 7.53 7.53v45.175a7.53 7.53 0 0 1-7.53 7.53h-45.176a7.53 7.53 0 0 1-7.53-7.53v-45.176a7.53 7.53 0 0 1 7.53-7.529" class="cls-1" style="fill:#fff;stroke-width:15.059"/>
</svg>
